<mxfile host="app.diagrams.net" modified="2023-10-03T07:46:18.576Z" agent="Mozilla/5.0 (Windows NT 10.0; Win64; x64) AppleWebKit/537.36 (KHTML, like Gecko) Chrome/117.0.0.0 Safari/537.36" version="22.0.0" etag="LGoDfebh24GIP6Ih0MXz" type="github">
  <diagram name="Page-1" id="Sdwl2rWb56yCQ2EqgOvv">
    <mxGraphModel>
      <root>
        <mxCell id="0" />
        <mxCell id="1" parent="0" />
      </root>
    </mxGraphModel>
  </diagram>
</mxfile>
